<svg width="18" height="18" viewBox="0 0 18 18" fill="none" xmlns="http://www.w3.org/2000/svg">
<g id="Icon">
<path id="Vector" d="M5.07 3.6301L3.72 2.2876L2.6625 3.3451L4.005 4.6876L5.07 3.6301ZM3 7.8751H0.75V9.3751H3V7.8751ZM9.75 0.412598H8.25V2.6251H9.75V0.412598ZM15.3375 3.3451L14.28 2.2876L12.9375 3.6301L13.995 4.6876L15.3375 3.3451ZM12.93 13.6201L14.2725 14.9701L15.33 13.9126L13.98 12.5701L12.93 13.6201ZM15 7.8751V9.3751H17.25V7.8751H15ZM9 4.1251C6.5175 4.1251 4.5 6.1426 4.5 8.6251C4.5 11.1076 6.5175 13.1251 9 13.1251C11.4825 13.1251 13.5 11.1076 13.5 8.6251C13.5 6.1426 11.4825 4.1251 9 4.1251ZM8.25 16.8376H9.75V14.6251H8.25V16.8376ZM2.6625 13.9051L3.72 14.9626L5.0625 13.6126L4.005 12.5551L2.6625 13.9051Z" fill="#9373FF"/>
</g>
</svg>
