<svg width="18" height="18" viewBox="0 0 18 18" fill="none" xmlns="http://www.w3.org/2000/svg">
<path d="M5.07 3.62998L3.72 2.28748L2.6625 3.34498L4.005 4.68748L5.07 3.62998ZM3 7.87498H0.75V9.37498H3V7.87498ZM9.75 0.412476H8.25V2.62498H9.75V0.412476ZM15.3375 3.34498L14.28 2.28748L12.9375 3.62998L13.995 4.68748L15.3375 3.34498ZM12.93 13.62L14.2725 14.97L15.33 13.9125L13.98 12.57L12.93 13.62ZM15 7.87498V9.37498H17.25V7.87498H15ZM9 4.12498C6.5175 4.12498 4.5 6.14248 4.5 8.62498C4.5 11.1075 6.5175 13.125 9 13.125C11.4825 13.125 13.5 11.1075 13.5 8.62498C13.5 6.14248 11.4825 4.12498 9 4.12498ZM8.25 16.8375H9.75V14.625H8.25V16.8375ZM2.6625 13.905L3.72 14.9625L5.0625 13.6125L4.005 12.555L2.6625 13.905Z" fill="#5946D2"/>
</svg>
